<?xml version="1.0" encoding="utf-8"?>
<!-- Generator: Adobe Illustrator 27.6.1, SVG Export Plug-In . SVG Version: 6.00 Build 0)  -->
<svg version="1.1" id="Ñëîé_1" xmlns="http://www.w3.org/2000/svg" xmlns:xlink="http://www.w3.org/1999/xlink" x="0px" y="0px"
	 viewBox="0 0 600 350" style="enable-background:new 0 0 600 350;" xml:space="preserve">
<style type="text/css">
	.st0{fill:url(#SVGID_1_);}
	.st1{fill:#D9E542;}
	.st2{fill:url(#SVGID_00000022545353074407550960000011162584778244651936_);}
	.st3{fill:#40371E;}
	.st4{fill:#FFFFFF;}
	.st5{opacity:0.51;fill:#453C9E;}
	.st6{opacity:0.8;fill:url(#SVGID_00000007400359216736378270000010750838262160276614_);}
	.st7{opacity:0.1;}
	.st8{clip-path:url(#SVGID_00000083797911153548670250000004706338285601660830_);}
	.st9{fill:#9FFFF8;}
	.st10{fill:#42E8E0;}
	.st11{opacity:0.4;fill:#24126A;}
	.st12{opacity:0.3;}
	.st13{fill:url(#SVGID_00000031929386760924583380000002589239116246175925_);}
	.st14{opacity:0.3;fill:#0F054C;}
	.st15{fill:url(#SVGID_00000175322332209105410670000011826787386076976261_);}
	.st16{fill:#0F054C;}
	.st17{opacity:0.4;fill:#42E8E0;}
	.st18{fill:url(#SVGID_00000124848781063442351270000005942551499650565009_);}
	.st19{fill:url(#SVGID_00000015356134308334831290000006332097704029654702_);}
	.st20{fill:url(#SVGID_00000013914029072817108700000004219583584381515150_);}
	.st21{fill:url(#SVGID_00000052797717978352394040000015781418857514521759_);}
	.st22{fill:url(#SVGID_00000160908619795501932130000016676742935986630309_);}
	.st23{fill:url(#SVGID_00000143607537395598436050000015802328627645633977_);}
	.st24{fill:url(#SVGID_00000044171943966576330190000013727890790596875674_);}
	.st25{fill:url(#SVGID_00000008839943685329916220000012120599128863726271_);}
	.st26{fill:url(#SVGID_00000150805668241772867120000007551897363061685908_);}
	.st27{opacity:0.3;fill:#444905;}
	.st28{fill:url(#SVGID_00000173856317477315307370000013066370630209652878_);}
	.st29{fill:url(#SVGID_00000050641770083392364390000014404922815265600430_);}
	.st30{fill:url(#SVGID_00000011004126886637855590000016131880101690312836_);}
	.st31{opacity:0.4;fill:#E5DD42;}
	.st32{opacity:0.5;fill:url(#SVGID_00000170971345977004923360000017261156759616184508_);}
	.st33{fill:#FFFFA1;}
	.st34{fill:#E5E542;}
	.st35{fill:#FFFAA1;}
	.st36{opacity:0.4;fill:#E5E142;}
	.st37{opacity:0.2;fill:#E1E542;}
	.st38{clip-path:url(#SVGID_00000103235042536493410010000014421704337276771989_);}
</style>
<radialGradient id="SVGID_1_" cx="76.8336" cy="-1585.6246" r="532.6512" gradientTransform="matrix(1 0 0 0.9992 0 1413.9669)" gradientUnits="userSpaceOnUse">
	<stop  offset="0" style="stop-color:#9B969C"/>
	<stop  offset="0.31" style="stop-color:#726F43"/>
	<stop  offset="1" style="stop-color:#222101"/>
</radialGradient>
<rect x="0" class="st0" width="600" height="350"/>
<g>
	<path class="st1" d="M347.87,284.41c-2.64,0-5.16-0.53-7.03-1.62l-92.06-53.15c-1.85-1.07-2.86-2.55-2.86-4.18
		c0-1.95,1.46-3.92,4.01-5.39L425.51,118.7c4.77-2.76,12.03-3.05,16.17-0.66l92.06,53.15c1.85,1.07,2.86,2.55,2.86,4.18
		c0,1.95-1.46,3.92-4.01,5.39L357.01,282.13C354.4,283.63,351.05,284.41,347.87,284.41z M341.04,282.45
		c4.03,2.33,11.11,2.03,15.77-0.66l175.58-101.37c2.42-1.4,3.81-3.24,3.81-5.04c0-1.48-0.95-2.84-2.66-3.83l-92.06-53.15
		c-4.03-2.33-11.11-2.03-15.77,0.66L250.12,220.42c-2.42,1.4-3.81,3.24-3.81,5.04c0,1.48,0.95,2.84,2.66,3.83L341.04,282.45z"/>
</g>
<g>
	
		<linearGradient id="SVGID_00000166648061545239012660000003927644654790168457_" gradientUnits="userSpaceOnUse" x1="246.1137" y1="186.1269" x2="536.4027" y2="186.1269">
		<stop  offset="0" style="stop-color:#BCBEFF"/>
		<stop  offset="0.151" style="stop-color:#A3A7F5"/>
		<stop  offset="0.3866" style="stop-color:#8289E8"/>
		<stop  offset="0.6124" style="stop-color:#6A73DF"/>
		<stop  offset="0.8221" style="stop-color:#5C66D9"/>
		<stop  offset="1" style="stop-color:#5761D7"/>
	</linearGradient>
	<path style="fill:url(#SVGID_00000166648061545239012660000003927644654790168457_);" d="M536.4,150.82l-13.22,2.28l-81.6-47.11
		c-4.09-2.36-11.24-2.07-15.97,0.66l-156.11,90.13l-23.38,4.03l0,8.29l0.01,0c-0.01,1.51,0.89,2.96,2.75,4.03l92.06,53.15
		c4.09,2.36,11.24,2.07,15.97-0.66l175.58-101.37c2.54-1.47,3.86-3.34,3.9-5.13l0.01,0V150.82z"/>
	<path class="st3" d="M340.94,257.93l-92.06-53.15c-4.09-2.36-3.58-6.49,1.15-9.22L425.61,94.18c4.73-2.73,11.88-3.03,15.97-0.66
		l92.06,53.15c4.09,2.36,3.58,6.49-1.15,9.22L356.91,257.27C352.18,259.99,345.03,260.29,340.94,257.93z"/>
	<path class="st4" d="M532.49,155.89L356.91,257.27c-4.73,2.73-11.88,3.03-15.97,0.66l-92.06-53.15c-1.64-0.95-2.53-2.18-2.72-3.49
		c-0.25,1.7,0.63,3.36,2.72,4.57L340.94,259c4.09,2.36,11.24,2.07,15.97-0.66l175.58-101.37c2.83-1.63,4.14-3.77,3.86-5.73
		C536.11,152.88,534.81,154.55,532.49,155.89z"/>
	<path class="st5" d="M341.12,255.87l-88.78-51.27c-3.96-2.29-3.46-6.28,1.11-8.92l172.32-99.46c4.57-2.64,11.49-2.93,15.45-0.64
		l88.78,51.27c3.96,2.29,3.46,6.28-1.11,8.92l-172.32,99.46C352,257.87,345.08,258.16,341.12,255.87z"/>
</g>
<g>
	
		<linearGradient id="SVGID_00000139271213004389194110000008478121386067249852_" gradientUnits="userSpaceOnUse" x1="431.6909" y1="227.1957" x2="350.6589" y2="119.6627">
		<stop  offset="0" style="stop-color:#FBF398"/>
		<stop  offset="0.0121" style="stop-color:#F5ED96"/>
		<stop  offset="0.122" style="stop-color:#BFB785"/>
		<stop  offset="0.236" style="stop-color:#908776"/>
		<stop  offset="0.3518" style="stop-color:#685F69"/>
		<stop  offset="0.4699" style="stop-color:#483F5E"/>
		<stop  offset="0.5912" style="stop-color:#2F2556"/>
		<stop  offset="0.7166" style="stop-color:#1D1351"/>
		<stop  offset="0.849" style="stop-color:#12084D"/>
		<stop  offset="1" style="stop-color:#0F054C"/>
	</linearGradient>
	<path style="opacity:0.8;fill:url(#SVGID_00000139271213004389194110000008478121386067249852_);" d="M347.83,255.4
		c-2.57,0-5.02-0.52-6.85-1.57l-88.78-51.27c-1.82-1.05-2.82-2.51-2.82-4.12c0-1.92,1.43-3.85,3.93-5.3l172.32-99.46
		c4.64-2.68,11.71-2.97,15.74-0.64l88.78,51.27c1.82,1.05,2.82,2.51,2.82,4.12c0,1.92-1.43,3.85-3.93,5.3l-172.32,99.46
		C354.18,254.65,350.92,255.4,347.83,255.4z M341.26,253.33c3.88,2.24,10.68,1.95,15.17-0.64l172.32-99.46
		c2.31-1.34,3.64-3.09,3.64-4.8c0-1.4-0.9-2.68-2.53-3.63l-88.78-51.27c-3.88-2.24-10.68-1.95-15.17,0.64l-172.32,99.46
		c-2.31,1.34-3.64,3.09-3.64,4.8c0,1.4,0.9,2.68,2.53,3.63L341.26,253.33z"/>
</g>
<g class="st7">
	<defs>
		<path id="SVGID_00000007404753504840599510000015222305653972724897_" class="st7" d="M341.12,253.58l-88.78-51.27
			c-3.96-2.29-3.46-6.28,1.11-8.92l172.32-99.46c4.57-2.64,11.49-2.93,15.45-0.64l88.78,51.27c3.96,2.29,3.46,6.28-1.11,8.92
			l-172.32,99.46C352,255.58,345.08,255.87,341.12,253.58z"/>
	</defs>
	
		<radialGradient id="SVGID_00000010293037788947824930000016782485783806548918_" cx="384.054" cy="176.1744" r="227.2106" gradientUnits="userSpaceOnUse">
		<stop  offset="0" style="stop-color:#42E8E0"/>
		<stop  offset="0.1055" style="stop-color:#37B6BF"/>
		<stop  offset="0.2197" style="stop-color:#2C87A1"/>
		<stop  offset="0.338" style="stop-color:#235F87"/>
		<stop  offset="0.4587" style="stop-color:#1C3F72"/>
		<stop  offset="0.5824" style="stop-color:#162561"/>
		<stop  offset="0.7105" style="stop-color:#121355"/>
		<stop  offset="0.8458" style="stop-color:#10084E"/>
		<stop  offset="1" style="stop-color:#0F054C"/>
	</radialGradient>
	
		<use xlink:href="#SVGID_00000007404753504840599510000015222305653972724897_"  style="overflow:visible;opacity:0.5;fill:url(#SVGID_00000010293037788947824930000016782485783806548918_);"/>
	<clipPath id="SVGID_00000133522976361490586220000005350863149391652503_">
		<use xlink:href="#SVGID_00000007404753504840599510000015222305653972724897_"  style="overflow:visible;opacity:0.5;"/>
	</clipPath>
	<g style="clip-path:url(#SVGID_00000133522976361490586220000005350863149391652503_);">
		<path class="st9" d="M439.18,234.33c0-11.15-7.83-24.71-17.49-30.29c-4.84-2.79-9.22-3.05-12.38-1.21v0l-3.31,1.93l0.96,0.09
			c-1.74,2.13-2.76,5.28-2.76,9.29c0,11.15,7.83,24.71,17.49,30.29c3.32,1.92,6.42,2.64,9.06,2.31l-0.07,0.89l3.36-1.96
			c0.01-0.01,0.03-0.02,0.04-0.02l0.14-0.08l-0.01,0C437.29,243.69,439.18,239.81,439.18,234.33z"/>
		
			<ellipse transform="matrix(0.866 -0.5 0.5 0.866 -57.0441 239.4953)" class="st10" cx="418.36" cy="226.19" rx="14.28" ry="24.73"/>
	</g>
</g>
<path class="st11" d="M511.05,153.06c-1.36,0.78-3.55,0.78-4.91,0c-1.36-0.78-1.36-2.05,0-2.83c1.36-0.78,3.55-0.78,4.91,0
	C512.4,151.01,512.4,152.28,511.05,153.06z"/>
<path class="st11" d="M492.32,139.41l9.61,5.55c1.17,0.68,1.03,1.86-0.33,2.64l0,0c-1.36,0.78-3.41,0.87-4.58,0.19l-9.61-5.55
	c-1.17-0.68-1.03-1.86,0.33-2.64h0C489.09,138.82,491.14,138.74,492.32,139.41z"/>
<path class="st11" d="M437.52,106.15l9.61,5.55c1.17,0.68,1.03,1.86-0.33,2.64l0,0c-1.36,0.78-3.4,0.87-4.58,0.19l-9.61-5.55
	c-1.17-0.68-1.03-1.86,0.33-2.64l0,0C434.29,105.55,436.34,105.47,437.52,106.15z"/>
<path class="st1" d="M511.05,149.62c-1.36,0.78-3.55,0.78-4.91,0c-1.36-0.78-1.36-2.05,0-2.83c1.36-0.78,3.55-0.78,4.91,0
	S512.4,148.84,511.05,149.62z"/>
<path class="st1" d="M492.32,135.97l9.61,5.55c1.17,0.68,1.03,1.86-0.33,2.64l0,0c-1.36,0.78-3.41,0.87-4.58,0.19l-9.61-5.55
	c-1.17-0.68-1.03-1.86,0.33-2.64h0C489.09,135.38,491.14,135.29,492.32,135.97z"/>
<path class="st1" d="M437.52,102.7l9.61,5.55c1.17,0.68,1.03,1.86-0.33,2.64l0,0c-1.36,0.78-3.4,0.87-4.58,0.19l-9.61-5.55
	c-1.17-0.68-1.03-1.86,0.33-2.64l0,0C434.29,102.11,436.34,102.03,437.52,102.7z"/>
<g class="st12">
	
		<linearGradient id="SVGID_00000029037449056630321920000009864455629817744796_" gradientUnits="userSpaceOnUse" x1="518.5662" y1="257.3128" x2="559.3759" y2="280.8743">
		<stop  offset="0" style="stop-color:#BCBEFF"/>
		<stop  offset="0.2271" style="stop-color:#AAADF8"/>
		<stop  offset="0.6802" style="stop-color:#7C83E5"/>
		<stop  offset="1" style="stop-color:#5761D7"/>
	</linearGradient>
	<path style="fill:url(#SVGID_00000029037449056630321920000009864455629817744796_);" d="M564.88,270.7v-4.48l-1.24-0.69
		c-0.35,2.12-2.84,3.51-4.92,3.8l-14.17,8.29l-6.19,2.23l-19.74-10.19l0.46-0.26c-1.69-0.79-2.6-2.59-3.51-4.24l-1.33,0.79
		l-0.79,0.22v4.6h0c0,0.88,0.58,1.76,1.74,2.42l19.78,11.42c2.32,1.34,6.08,1.34,8.4,0l19.78-11.42c1.14-0.66,1.72-1.52,1.74-2.38
		C564.89,270.78,564.88,270.74,564.88,270.7L564.88,270.7z"/>
	<path class="st14" d="M558.72,269.33l-14.17,8.29l-5.38,1.94v6.06c1.52,0,3.04-0.33,4.2-1l19.78-11.42
		c1.14-0.66,1.72-1.52,1.74-2.38c0-0.04,0-0.08,0-0.12l0,0v-4.48l-1.13-0.63h-0.12C563.25,267.67,560.79,269.04,558.72,269.33z"/>
	<g>
		
			<linearGradient id="SVGID_00000083781404491192100270000007248434446491511979_" gradientUnits="userSpaceOnUse" x1="513.449" y1="266.219" x2="564.8847" y2="266.219">
			<stop  offset="0" style="stop-color:#E9E9FD"/>
			<stop  offset="0.3601" style="stop-color:#D3D2F9"/>
			<stop  offset="0.7062" style="stop-color:#C5C4F7"/>
			<stop  offset="1" style="stop-color:#C0BFF6"/>
		</linearGradient>
		<path style="fill:url(#SVGID_00000083781404491192100270000007248434446491511979_);" d="M534.97,280.06l-19.78-11.42
			c-2.32-1.34-2.32-3.51,0-4.85l19.78-11.42c2.32-1.34,6.08-1.34,8.4,0l19.78,11.42c2.32,1.34,2.32,3.51,0,4.85l-19.78,11.42
			C541.05,281.4,537.28,281.4,534.97,280.06z"/>
	</g>
	<g class="st12">
		<path class="st16" d="M534.97,280.06l-19.78-11.42c-2.32-1.34-2.32-3.51,0-4.85l19.78-11.42c2.32-1.34,6.08-1.34,8.4,0
			l19.78,11.42c2.32,1.34,2.32,3.51,0,4.85l-19.78,11.42C541.05,281.4,537.28,281.4,534.97,280.06z"/>
	</g>
</g>
<g>
	<g>
		<path class="st1" d="M539.17,265.63c-1.35,0-2.7-0.3-3.73-0.89l-19.78-11.42c-1.03-0.59-1.59-1.39-1.59-2.25
			c0-0.86,0.57-1.66,1.59-2.25l19.78-11.42c2.06-1.18,5.4-1.19,7.46,0l19.78,11.42c1.03,0.59,1.59,1.39,1.59,2.25
			c0,0.86-0.57,1.66-1.59,2.25l-19.78,11.42C541.87,265.33,540.52,265.63,539.17,265.63z M539.17,236.85
			c-1.29,0-2.58,0.28-3.56,0.85l-19.78,11.42c-0.92,0.53-1.42,1.22-1.42,1.95c0,0.73,0.5,1.42,1.42,1.95l19.78,11.42
			c1.96,1.13,5.15,1.13,7.11,0l19.78-11.42c0.91-0.53,1.42-1.22,1.42-1.95s-0.5-1.42-1.42-1.95l-19.78-11.42
			C541.74,237.13,540.45,236.85,539.17,236.85z"/>
		<g>
			<path class="st17" d="M564.88,246.68v-6.77l-1.24-0.69c-0.35,2.12-2.84,3.51-4.92,3.8l-14.17,8.29l-6.19,2.23l-19.74-10.19
				l0.46-0.26c-1.69-0.79-2.6-2.59-3.51-4.24l-1.33,0.79l-0.79,0.22v6.89h0c0,0.88,0.58,1.76,1.74,2.42l19.78,11.42
				c2.32,1.34,6.08,1.34,8.4,0l19.78-11.42c1.14-0.66,1.72-1.52,1.74-2.38C564.89,246.76,564.88,246.72,564.88,246.68L564.88,246.68
				z"/>
			<g>
				<g>
					
						<linearGradient id="SVGID_00000127006179874803798490000007694799010425955714_" gradientUnits="userSpaceOnUse" x1="518.5662" y1="227.2746" x2="559.376" y2="250.8361">
						<stop  offset="0" style="stop-color:#FFFBCE"/>
						<stop  offset="0.1531" style="stop-color:#FDF8BC"/>
						<stop  offset="0.4605" style="stop-color:#F6EF8D"/>
						<stop  offset="0.8902" style="stop-color:#ECE142"/>
						<stop  offset="1" style="stop-color:#E9DD2E"/>
					</linearGradient>
					<path style="fill:url(#SVGID_00000127006179874803798490000007694799010425955714_);" d="M564.88,240.66v-4.48l-1.24-0.69
						c-0.35,2.12-2.84,3.51-4.92,3.8l-14.17,8.29l-6.19,2.23l-19.74-10.19l0.46-0.26c-1.69-0.79-2.6-2.59-3.51-4.24l-1.33,0.79
						l-0.79,0.22v4.6h0c0,0.88,0.58,1.76,1.74,2.42l19.78,11.42c2.32,1.34,6.08,1.34,8.4,0l19.78-11.42
						c1.14-0.66,1.72-1.52,1.74-2.38C564.89,240.74,564.88,240.7,564.88,240.66L564.88,240.66z"/>
					<path class="st14" d="M558.72,239.29l-14.17,8.29l-5.38,1.94v6.06c1.52,0,3.04-0.33,4.2-1l19.78-11.42
						c1.14-0.66,1.72-1.52,1.74-2.38c0-0.04,0-0.08,0-0.12l0,0v-4.48l-1.13-0.63h-0.12C563.25,237.63,560.79,239,558.72,239.29z"/>
					<g>
						
							<linearGradient id="SVGID_00000176039353899557068680000008654150920336871824_" gradientUnits="userSpaceOnUse" x1="513.4491" y1="236.1808" x2="564.8847" y2="236.1808">
							<stop  offset="0" style="stop-color:#FDFCEA"/>
							<stop  offset="0.2532" style="stop-color:#FEFCDD"/>
							<stop  offset="0.6569" style="stop-color:#FFFBCF"/>
							<stop  offset="1" style="stop-color:#FFFBCA"/>
						</linearGradient>
						<path style="fill:url(#SVGID_00000176039353899557068680000008654150920336871824_);" d="M534.97,250.03l-19.78-11.42
							c-2.32-1.34-2.32-3.51,0-4.85l19.78-11.42c2.32-1.34,6.08-1.34,8.4,0l19.78,11.42c2.32,1.34,2.32,3.51,0,4.85l-19.78,11.42
							C541.05,251.36,537.28,251.36,534.97,250.03z"/>
					</g>
					<g>
						<path class="st4" d="M563.15,238.61l-19.78,11.42c-2.32,1.34-6.08,1.34-8.4,0l-19.78-11.42c-1.04-0.6-1.61-1.36-1.72-2.15
							c-0.14,0.97,0.44,1.96,1.72,2.7l19.78,11.42c2.32,1.34,6.08,1.34,8.4,0l19.78-11.42c1.28-0.74,1.85-1.74,1.72-2.7
							C564.75,237.24,564.18,238.01,563.15,238.61z"/>
					</g>
				</g>
			</g>
		</g>
	</g>
</g>
<g class="st12">
	
		<linearGradient id="SVGID_00000098939974023681556340000017579792077924144824_" gradientUnits="userSpaceOnUse" x1="430.4973" y1="283.9649" x2="471.307" y2="307.5264">
		<stop  offset="0" style="stop-color:#BCBEFF"/>
		<stop  offset="0.2271" style="stop-color:#AAADF8"/>
		<stop  offset="0.6802" style="stop-color:#7C83E5"/>
		<stop  offset="1" style="stop-color:#5761D7"/>
	</linearGradient>
	<path style="fill:url(#SVGID_00000098939974023681556340000017579792077924144824_);" d="M476.82,297.35l0-4.48l-1.24-0.69
		c-0.35,2.12-2.84,3.51-4.92,3.8l-14.17,8.29l-6.19,2.23l-19.74-10.19l0.46-0.26c-1.69-0.79-2.6-2.59-3.51-4.24l-1.33,0.79
		l-0.79,0.22v4.6h0c0,0.88,0.58,1.76,1.74,2.42l19.78,11.42c2.32,1.34,6.08,1.34,8.4,0l19.78-11.42c1.14-0.66,1.72-1.52,1.74-2.38
		C476.82,297.43,476.81,297.39,476.82,297.35L476.82,297.35z"/>
	<path class="st14" d="M470.66,295.98l-14.17,8.29l-5.38,1.94v6.06c1.52,0,3.04-0.33,4.2-1l19.78-11.42
		c1.14-0.66,1.72-1.52,1.74-2.38c0-0.04,0-0.08,0-0.12l0,0l0-4.48l-1.13-0.63h-0.12C475.18,294.32,472.72,295.69,470.66,295.98z"/>
	<g>
		
			<linearGradient id="SVGID_00000018925444473257200650000000803276354778684335_" gradientUnits="userSpaceOnUse" x1="425.3801" y1="292.8711" x2="476.8158" y2="292.8711">
			<stop  offset="0" style="stop-color:#E9E9FD"/>
			<stop  offset="0.3601" style="stop-color:#D3D2F9"/>
			<stop  offset="0.7062" style="stop-color:#C5C4F7"/>
			<stop  offset="1" style="stop-color:#C0BFF6"/>
		</linearGradient>
		<path style="fill:url(#SVGID_00000018925444473257200650000000803276354778684335_);" d="M446.9,306.72l-19.78-11.42
			c-2.32-1.34-2.32-3.51,0-4.85l19.78-11.42c2.32-1.34,6.08-1.34,8.4,0l19.78,11.42c2.32,1.34,2.32,3.51,0,4.85l-19.78,11.42
			C452.98,308.05,449.21,308.05,446.9,306.72z"/>
	</g>
	<g class="st12">
		<path class="st16" d="M446.9,306.72l-19.78-11.42c-2.32-1.34-2.32-3.51,0-4.85l19.78-11.42c2.32-1.34,6.08-1.34,8.4,0l19.78,11.42
			c2.32,1.34,2.32,3.51,0,4.85l-19.78,11.42C452.98,308.05,449.21,308.05,446.9,306.72z"/>
	</g>
</g>
<g>
	<g>
		<path class="st1" d="M451.1,290.1c-1.35,0-2.7-0.3-3.73-0.89l-19.78-11.42c-1.03-0.59-1.59-1.39-1.59-2.25s0.57-1.66,1.59-2.25
			l19.78-11.42c2.06-1.19,5.4-1.19,7.46,0l19.78,11.42c1.03,0.59,1.59,1.39,1.59,2.25c0,0.86-0.57,1.66-1.59,2.25l-19.78,11.42
			C453.8,289.81,452.45,290.1,451.1,290.1z M447.54,288.91c1.96,1.13,5.15,1.13,7.11,0l19.78-11.42c0.92-0.53,1.42-1.22,1.42-1.95
			c0-0.73-0.5-1.42-1.42-1.95l-19.78-11.42c-1.96-1.13-5.15-1.13-7.11,0l-19.78,11.42c-0.92,0.53-1.42,1.22-1.42,1.95
			c0,0.73,0.5,1.42,1.42,1.95L447.54,288.91z"/>
		<g>
			<path class="st17" d="M476.82,271.16v-6.77l-1.24-0.69c-0.35,2.12-2.84,3.51-4.92,3.8l-14.17,8.29l-6.19,2.23l-19.74-10.19
				l0.46-0.26c-1.69-0.79-2.6-2.59-3.51-4.24l-1.33,0.79l-0.79,0.22v6.89h0c0,0.88,0.58,1.76,1.74,2.42l19.78,11.42
				c2.32,1.34,6.08,1.34,8.4,0l19.78-11.42c1.14-0.66,1.72-1.52,1.74-2.38C476.82,271.23,476.81,271.19,476.82,271.16L476.82,271.16
				z"/>
			<g>
				<g>
					
						<linearGradient id="SVGID_00000100377586472836260210000001827280187008812708_" gradientUnits="userSpaceOnUse" x1="430.4973" y1="251.7467" x2="471.307" y2="275.3082">
						<stop  offset="0" style="stop-color:#F2F2AB"/>
						<stop  offset="0.2715" style="stop-color:#F1F099"/>
						<stop  offset="0.8136" style="stop-color:#F0EC6B"/>
						<stop  offset="1" style="stop-color:#EFEA59"/>
					</linearGradient>
					<path style="fill:url(#SVGID_00000100377586472836260210000001827280187008812708_);" d="M476.82,265.13v-4.48l-1.24-0.69
						c-0.35,2.12-2.84,3.51-4.92,3.8l-14.17,8.29l-6.19,2.23l-19.74-10.19l0.46-0.26c-1.69-0.79-2.6-2.59-3.51-4.24l-1.33,0.79
						l-0.79,0.22v4.6h0c0,0.88,0.58,1.76,1.74,2.42l19.78,11.42c2.32,1.34,6.08,1.34,8.4,0l19.78-11.42
						c1.14-0.66,1.72-1.52,1.74-2.38C476.82,265.21,476.81,265.17,476.82,265.13L476.82,265.13z"/>
					<path class="st14" d="M470.66,263.76l-14.17,8.29l-5.38,1.94v6.06c1.52,0,3.04-0.33,4.2-1l19.78-11.42
						c1.14-0.66,1.72-1.52,1.74-2.38c0-0.04,0-0.08,0-0.12l0,0v-4.48l-1.13-0.63h-0.12C475.18,262.1,472.72,263.48,470.66,263.76z"
						/>
					<g>
						
							<linearGradient id="SVGID_00000021818895181739793610000018042486258763972747_" gradientUnits="userSpaceOnUse" x1="425.3801" y1="260.6529" x2="476.8158" y2="260.6529">
							<stop  offset="0" style="stop-color:#FFFDE3"/>
							<stop  offset="0.1399" style="stop-color:#FFFDDD"/>
							<stop  offset="0.6049" style="stop-color:#FFFBCF"/>
							<stop  offset="1" style="stop-color:#FFFBCA"/>
						</linearGradient>
						<path style="fill:url(#SVGID_00000021818895181739793610000018042486258763972747_);" d="M446.9,274.5l-19.78-11.42
							c-2.32-1.34-2.32-3.51,0-4.85l19.78-11.42c2.32-1.34,6.08-1.34,8.4,0l19.78,11.42c2.32,1.34,2.32,3.51,0,4.85L455.3,274.5
							C452.98,275.84,449.21,275.84,446.9,274.5z"/>
					</g>
					<g>
						<path class="st1" d="M451.1,272.42c-1.22,0-2.44-0.27-3.37-0.8l-15.45-8.92c-0.93-0.54-1.44-1.26-1.44-2.05
							c0-0.78,0.51-1.51,1.44-2.04l15.45-8.92c1.86-1.07,4.88-1.07,6.74,0l15.45,8.92c0.93,0.54,1.44,1.26,1.44,2.05
							c0,0.78-0.51,1.51-1.44,2.04l-15.45,8.92C453.54,272.16,452.32,272.42,451.1,272.42z M447.9,271.32
							c1.76,1.02,4.63,1.02,6.39,0l15.45-8.92c0.82-0.47,1.27-1.09,1.27-1.74c0-0.65-0.45-1.27-1.27-1.75l-15.45-8.92
							c-1.76-1.02-4.63-1.02-6.39,0l-15.45,8.92c-0.82,0.47-1.27,1.09-1.27,1.74c0,0.65,0.45,1.27,1.27,1.74L447.9,271.32z"/>
					</g>
					<g>
						<path class="st4" d="M475.08,263.08L455.3,274.5c-2.32,1.34-6.08,1.34-8.4,0l-19.78-11.42c-1.04-0.6-1.61-1.36-1.72-2.15
							c-0.14,0.97,0.44,1.96,1.72,2.7l19.78,11.42c2.32,1.34,6.08,1.34,8.4,0l19.78-11.42c1.28-0.74,1.85-1.74,1.72-2.7
							C476.68,261.72,476.11,262.48,475.08,263.08z"/>
					</g>
				</g>
			</g>
		</g>
	</g>
</g>
<g class="st12">
	
		<linearGradient id="SVGID_00000164483957391037277610000010321053802444860606_" gradientUnits="userSpaceOnUse" x1="261.3302" y1="124.9799" x2="302.14" y2="148.5414">
		<stop  offset="0" style="stop-color:#BCBEFF"/>
		<stop  offset="0.2271" style="stop-color:#AAADF8"/>
		<stop  offset="0.6802" style="stop-color:#7C83E5"/>
		<stop  offset="1" style="stop-color:#5761D7"/>
	</linearGradient>
	<path style="fill:url(#SVGID_00000164483957391037277610000010321053802444860606_);" d="M307.65,138.37v-4.48l-1.24-0.69
		c-0.35,2.12-2.84,3.51-4.92,3.8l-14.17,8.29l-6.19,2.23l-19.74-10.19l0.46-0.26c-1.69-0.79-2.6-2.59-3.51-4.24l-1.33,0.79
		l-0.79,0.22v4.6l0,0c0,0.88,0.58,1.76,1.74,2.42l19.78,11.42c2.32,1.34,6.08,1.34,8.4,0l19.78-11.42c1.14-0.66,1.72-1.52,1.74-2.38
		C307.65,138.44,307.65,138.41,307.65,138.37L307.65,138.37z"/>
	<path class="st14" d="M301.49,137l-14.17,8.29l-5.38,1.94v6.06c1.52,0,3.04-0.33,4.2-1l19.78-11.42c1.14-0.66,1.72-1.52,1.74-2.38
		c0-0.04,0-0.08,0-0.12l0,0v-4.48l-1.13-0.63h-0.12C306.01,135.34,303.55,136.71,301.49,137z"/>
	<g>
		
			<linearGradient id="SVGID_00000054967913230921538260000011105714068358239902_" gradientUnits="userSpaceOnUse" x1="256.2131" y1="133.8861" x2="307.6487" y2="133.8861">
			<stop  offset="0" style="stop-color:#E9E9FD"/>
			<stop  offset="0.3601" style="stop-color:#D3D2F9"/>
			<stop  offset="0.7062" style="stop-color:#C5C4F7"/>
			<stop  offset="1" style="stop-color:#C0BFF6"/>
		</linearGradient>
		<path style="fill:url(#SVGID_00000054967913230921538260000011105714068358239902_);" d="M277.73,147.73l-19.78-11.42
			c-2.32-1.34-2.32-3.51,0-4.85l19.78-11.42c2.32-1.34,6.08-1.34,8.4,0l19.78,11.42c2.32,1.34,2.32,3.51,0,4.85l-19.78,11.42
			C283.82,149.07,280.05,149.07,277.73,147.73z"/>
	</g>
	<g class="st12">
		<path class="st16" d="M277.73,147.73l-19.78-11.42c-2.32-1.34-2.32-3.51,0-4.85l19.78-11.42c2.32-1.34,6.08-1.34,8.4,0
			l19.78,11.42c2.32,1.34,2.32,3.51,0,4.85l-19.78,11.42C283.82,149.07,280.05,149.07,277.73,147.73z"/>
	</g>
</g>
<g>
	<g>
		<path class="st1" d="M281.93,134.05c-1.35,0-2.7-0.3-3.73-0.89l-19.78-11.42c-1.03-0.59-1.59-1.39-1.59-2.25
			c0-0.86,0.57-1.66,1.59-2.25l19.78-11.42c2.06-1.19,5.4-1.19,7.46,0l19.78,11.42c1.03,0.59,1.59,1.39,1.59,2.25
			c0,0.86-0.57,1.66-1.59,2.25l-19.78,11.42C284.63,133.75,283.28,134.05,281.93,134.05z M281.93,105.26
			c-1.29,0-2.57,0.28-3.56,0.85l-19.78,11.42c-0.92,0.53-1.42,1.22-1.42,1.95c0,0.73,0.5,1.42,1.42,1.95l19.78,11.42
			c1.96,1.13,5.15,1.13,7.11,0l19.78-11.42c0.92-0.53,1.42-1.22,1.42-1.95c0-0.73-0.5-1.42-1.42-1.95l-19.78-11.42
			C284.51,105.55,283.22,105.26,281.93,105.26z"/>
		<g>
			<path class="st17" d="M307.65,115.1v-6.77l-1.24-0.69c-0.35,2.12-2.84,3.51-4.92,3.8l-14.17,8.29l-6.19,2.23l-19.74-10.19
				l0.46-0.26c-1.69-0.79-2.6-2.59-3.51-4.24l-1.33,0.79l-0.79,0.22v6.89l0,0c0,0.88,0.58,1.76,1.74,2.42l19.78,11.42
				c2.32,1.34,6.08,1.34,8.4,0l19.78-11.42c1.14-0.66,1.72-1.52,1.74-2.38C307.65,115.18,307.65,115.14,307.65,115.1L307.65,115.1z"
				/>
			<g>
				<g>
					
						<linearGradient id="SVGID_00000119096502145157689970000004242387684688851871_" gradientUnits="userSpaceOnUse" x1="261.3303" y1="95.6929" x2="302.14" y2="119.2544">
						<stop  offset="0" style="stop-color:#FBF7C1"/>
						<stop  offset="0.1637" style="stop-color:#F5F3AF"/>
						<stop  offset="0.4922" style="stop-color:#E4E780"/>
						<stop  offset="0.9516" style="stop-color:#C9D535"/>
						<stop  offset="1" style="stop-color:#C6D32D"/>
					</linearGradient>
					<path style="fill:url(#SVGID_00000119096502145157689970000004242387684688851871_);" d="M307.65,109.08v-4.48l-1.24-0.69
						c-0.35,2.12-2.84,3.51-4.92,3.8L287.31,116l-6.19,2.23l-19.74-10.19l0.46-0.26c-1.69-0.79-2.6-2.59-3.51-4.24l-1.33,0.79
						l-0.79,0.22v4.6l0,0c0,0.88,0.58,1.76,1.74,2.42L277.73,123c2.32,1.34,6.08,1.34,8.4,0l19.78-11.42
						c1.14-0.66,1.72-1.52,1.74-2.38C307.65,109.16,307.65,109.12,307.65,109.08L307.65,109.08z"/>
					<path class="st27" d="M301.49,107.71L287.31,116l-5.38,1.94V124c1.52,0,3.04-0.33,4.2-1l19.78-11.42
						c1.14-0.66,1.72-1.52,1.74-2.38c0-0.04,0-0.08,0-0.12l0,0v-4.48l-1.13-0.63h-0.12C306.01,106.05,303.55,107.42,301.49,107.71z"
						/>
					
						<linearGradient id="SVGID_00000072276130823352346470000001711606673830976130_" gradientUnits="userSpaceOnUse" x1="263.7794" y1="94.1062" x2="300.1736" y2="115.1184">
						<stop  offset="0.2421" style="stop-color:#D3DE25"/>
						<stop  offset="0.3069" style="stop-color:#D9E241"/>
						<stop  offset="0.4236" style="stop-color:#E2E86E"/>
						<stop  offset="0.5412" style="stop-color:#E9EE93"/>
						<stop  offset="0.6581" style="stop-color:#EFF2B0"/>
						<stop  offset="0.774" style="stop-color:#F3F5C5"/>
						<stop  offset="0.8884" style="stop-color:#F5F6D1"/>
						<stop  offset="1" style="stop-color:#F6F7D5"/>
					</linearGradient>
					<path style="fill:url(#SVGID_00000072276130823352346470000001711606673830976130_);" d="M261.84,107.78l18.74-10.82
						c0.74-0.43,1.95-0.43,2.69,0l18.42,10.63l-0.2,0.12c2.08-0.29,4.57-1.68,4.92-3.8l-20.67-11.5l-6.01-1.59l-4.9,2.88l-16.5,9.84
						C259.24,105.19,260.15,106.99,261.84,107.78z"/>
					<path class="st14" d="M281.93,91.41l-2.21-0.58l-4.9,2.88l-16.5,9.84c0.91,1.64,1.82,3.45,3.51,4.24l18.74-10.82
						c0.37-0.21,0.86-0.32,1.35-0.32V91.41z"/>
					<g>
						
							<linearGradient id="SVGID_00000143578344431620546990000017361071422578498481_" gradientUnits="userSpaceOnUse" x1="256.2131" y1="104.5991" x2="307.6487" y2="104.5991">
							<stop  offset="0" style="stop-color:#EEF2C0"/>
							<stop  offset="0.0228" style="stop-color:#EEF2BF"/>
							<stop  offset="0.5511" style="stop-color:#F6F4B1"/>
							<stop  offset="1" style="stop-color:#F8F4AC"/>
						</linearGradient>
						<path style="fill:url(#SVGID_00000143578344431620546990000017361071422578498481_);" d="M277.73,118.44l-19.78-11.42
							c-2.32-1.34-2.32-3.51,0-4.85l19.78-11.42c2.32-1.34,6.08-1.34,8.4,0l19.78,11.42c2.32,1.34,2.32,3.51,0,4.85l-19.78,11.42
							C283.82,119.78,280.05,119.78,277.73,118.44z M283.28,92.4c-0.74-0.43-1.95-0.43-2.69,0l-19.78,11.42
							c-0.74,0.43-0.74,1.12,0,1.55l19.78,11.42c0.74,0.43,1.95,0.43,2.69,0l19.78-11.42c0.74-0.43,0.74-1.12,0-1.55L283.28,92.4z"
							/>
					</g>
					<g>
						<path class="st4" d="M303.06,103.82L283.28,92.4c-0.74-0.43-1.95-0.43-2.69,0l-19.78,11.42c-0.49,0.29-0.66,0.69-0.49,1.06
							c0.08-0.18,0.25-0.35,0.49-0.5l19.78-11.42c0.74-0.43,1.95-0.43,2.69,0l19.78,11.42c0.25,0.14,0.41,0.31,0.49,0.5
							C303.71,104.51,303.55,104.11,303.06,103.82z"/>
						<path class="st4" d="M305.91,107.02l-19.78,11.42c-2.32,1.34-6.08,1.34-8.4,0l-19.78-11.42c-1.04-0.6-1.61-1.36-1.72-2.15
							c-0.14,0.97,0.44,1.96,1.72,2.7L277.73,119c2.32,1.34,6.08,1.34,8.4,0l19.78-11.42c1.28-0.74,1.85-1.74,1.72-2.7
							C307.52,105.66,306.95,106.43,305.91,107.02z"/>
					</g>
					<g>
						
							<linearGradient id="SVGID_00000181052960015745117980000008338741901757563304_" gradientUnits="userSpaceOnUse" x1="257.0027" y1="104.5991" x2="306.859" y2="104.5991">
							<stop  offset="0" style="stop-color:#F8F6C1"/>
							<stop  offset="0.2121" style="stop-color:#F2F2AB"/>
							<stop  offset="0.5014" style="stop-color:#EBED93"/>
							<stop  offset="0.7711" style="stop-color:#E6EA85"/>
							<stop  offset="1" style="stop-color:#E5E980"/>
						</linearGradient>
						<path style="fill:url(#SVGID_00000181052960015745117980000008338741901757563304_);" d="M278.29,118.12l-19.78-11.42
							c-2.01-1.16-2.01-3.05,0-4.21l19.78-11.42c2.01-1.16,5.28-1.16,7.28,0l19.78,11.42c2.01,1.16,2.01,3.05,0,4.2l-19.78,11.42
							C283.56,119.28,280.3,119.28,278.29,118.12z M283.83,92.08c-1.05-0.61-2.76-0.61-3.81,0l-19.78,11.42
							c-1.05,0.61-1.05,1.59,0,2.2l19.78,11.42c1.05,0.61,2.76,0.61,3.81,0l19.78-11.42c1.05-0.61,1.05-1.59,0-2.2L283.83,92.08z"/>
					</g>
				</g>
				<path class="st31" d="M283.28,92.4c-0.74-0.43-1.95-0.43-2.69,0l-19.78,11.42c-0.74,0.43-0.74,1.12,0,1.55l19.78,11.42
					c0.74,0.43,1.95,0.43,2.69,0l19.78-11.42c0.74-0.43,0.74-1.12,0-1.55L283.28,92.4z"/>
			</g>
		</g>
	</g>
	
		<linearGradient id="SVGID_00000158714837198369825060000011603781497675121342_" gradientUnits="userSpaceOnUse" x1="281.9297" y1="117.117" x2="281.9297" y2="34.0347">
		<stop  offset="0" style="stop-color:#42E8E0"/>
		<stop  offset="0.1055" style="stop-color:#37B6BF"/>
		<stop  offset="0.2197" style="stop-color:#2C87A1"/>
		<stop  offset="0.338" style="stop-color:#235F87"/>
		<stop  offset="0.4587" style="stop-color:#1C3F72"/>
		<stop  offset="0.5824" style="stop-color:#162561"/>
		<stop  offset="0.7105" style="stop-color:#121355"/>
		<stop  offset="0.8458" style="stop-color:#10084E"/>
		<stop  offset="1" style="stop-color:#0F054C"/>
	</linearGradient>
	<path style="opacity:0.5;fill:url(#SVGID_00000158714837198369825060000011603781497675121342_);" d="M303.61,104.58V34.03h-43.36
		l0,70.55c-0.01,0.29,0.18,0.57,0.55,0.79l19.78,11.42c0.74,0.43,1.95,0.43,2.69,0l19.78-11.42
		C303.43,105.16,303.62,104.87,303.61,104.58z"/>
</g>
<g>
	<path class="st33" d="M439.18,160.76c0-11.15-7.83-24.71-17.49-30.29c-4.84-2.79-9.22-3.05-12.38-1.21v0l-3.31,1.93l0.96,0.09
		c-1.74,2.13-2.76,5.28-2.76,9.29c0,11.15,7.83,24.71,17.49,30.29c3.32,1.92,6.42,2.64,9.06,2.31l-0.07,0.89l3.36-1.96
		c0.01-0.01,0.03-0.02,0.04-0.02l0.14-0.08l-0.01,0C437.29,170.12,439.18,166.25,439.18,160.76z"/>
	<ellipse transform="matrix(0.866 -0.5 0.5 0.866 -20.2601 229.637)" class="st34" cx="418.36" cy="152.62" rx="14.28" ry="24.73"/>
</g>
<g>
	<path class="st35" d="M398.33,112.57c6.47-9.08,7.97-24.67,3.34-34.81c-2.32-5.08-5.73-7.84-9.38-8.18l0,0l-3.81-0.34l0.73,0.63
		c-2.66,0.73-5.31,2.7-7.64,5.96c-6.47,9.08-7.97,24.67-3.35,34.81c1.59,3.49,3.7,5.88,6.04,7.14l-0.57,0.68l3.87,0.35
		c0.02,0,0.03,0,0.05,0l0.16,0.01l-0.01-0.01C391.35,119.09,395.15,117.03,398.33,112.57z"/>
	
		<ellipse transform="matrix(0.0956 -0.9954 0.9954 0.0956 255.7578 469.2035)" class="st34" cx="386.1" cy="93.85" rx="24.73" ry="14.28"/>
</g>
<g class="st7">
	<path class="st9" d="M404.21,185.98c0-11.15-7.83-24.71-17.49-30.29c-4.84-2.79-9.22-3.05-12.38-1.21v0l-3.31,1.93l0.96,0.09
		c-1.74,2.13-2.76,5.28-2.76,9.29c0,11.15,7.83,24.71,17.49,30.29c3.32,1.92,6.42,2.64,9.06,2.31l-0.07,0.89l3.36-1.96
		c0.01-0.01,0.03-0.02,0.04-0.02l0.14-0.08l-0.01,0C402.32,195.34,404.21,191.46,404.21,185.98z"/>
	
		<ellipse transform="matrix(0.866 -0.5 0.5 0.866 -37.5536 215.5267)" class="st10" cx="383.38" cy="177.84" rx="14.28" ry="24.73"/>
</g>
<path class="st36" d="M384.51,204.17c-12.06,0-24.13-2.65-33.31-7.95c-8.93-5.16-13.85-12.02-13.85-19.33
	c0-7.31,4.92-14.17,13.85-19.33c18.37-10.61,48.25-10.6,66.62,0c8.93,5.16,13.85,12.02,13.85,19.33c0,7.31-4.92,14.18-13.85,19.33
	l-0.09-0.15l0.09,0.15C408.64,201.52,396.58,204.17,384.51,204.17z M384.51,149.95c-12,0-24,2.64-33.14,7.91
	c-8.82,5.09-13.67,11.85-13.67,19.03c0,7.18,4.86,13.94,13.68,19.03c18.27,10.55,48,10.55,66.27,0l0,0
	c8.82-5.09,13.67-11.85,13.67-19.03c0-7.18-4.86-13.94-13.68-19.03C408.51,152.58,396.51,149.95,384.51,149.95z"/>
<path class="st37" d="M384.51,211.49c-15.31,0-30.62-3.36-42.27-10.09c-11.32-6.54-17.56-15.24-17.56-24.5
	c0-9.26,6.24-17.97,17.56-24.5c23.31-13.46,61.23-13.46,84.54,0c11.32,6.54,17.56,15.24,17.56,24.5c0,9.26-6.24,17.97-17.56,24.5
	C415.13,208.12,399.82,211.49,384.51,211.49z M384.51,142.63c-15.25,0-30.49,3.35-42.1,10.05c-11.21,6.47-17.39,15.07-17.39,24.2
	c0,9.14,6.17,17.73,17.39,24.2c23.21,13.4,60.98,13.4,84.19,0c11.21-6.47,17.39-15.07,17.39-24.2c0-9.14-6.17-17.73-17.39-24.2
	C415,145.98,399.76,142.63,384.51,142.63z"/>
<path class="st34" d="M384.51,198.41c-9.51,0-19.01-2.09-26.25-6.27c-7.04-4.07-10.92-9.49-10.92-15.26
	c0-5.77,3.88-11.19,10.92-15.26c14.48-8.36,38.03-8.36,52.5,0c7.04,4.07,10.92,9.49,10.92,15.26c0,5.77-3.88,11.19-10.92,15.26
	l-0.09-0.15l0.09,0.15C403.53,196.32,394.02,198.41,384.51,198.41z M384.51,155.71c-9.44,0-18.89,2.08-26.08,6.23
	c-6.93,4-10.75,9.31-10.75,14.96s3.82,10.95,10.75,14.96c14.38,8.3,37.78,8.3,52.16,0c6.93-4,10.75-9.31,10.75-14.95
	s-3.82-10.95-10.75-14.96C403.4,157.78,393.96,155.71,384.51,155.71z"/>
<g>
	<defs>
		<polygon id="SVGID_00000016074462679415042310000005585718067664063407_" points="411.89,181.56 400.9,187.89 357.13,162.62 
			357.13,114.02 411.89,145.64 		"/>
	</defs>
	<clipPath id="SVGID_00000111903567521920712360000011967129394358791337_">
		<use xlink:href="#SVGID_00000016074462679415042310000005585718067664063407_"  style="overflow:visible;"/>
	</clipPath>
	<g style="clip-path:url(#SVGID_00000111903567521920712360000011967129394358791337_);">
		<path class="st33" d="M404.21,185.98c0-11.15-7.83-24.71-17.49-30.29c-4.84-2.79-9.22-3.05-12.38-1.21v0l-3.31,1.93l0.96,0.09
			c-1.74,2.13-2.76,5.28-2.76,9.29c0,11.15,7.83,24.71,17.49,30.29c3.32,1.92,6.42,2.64,9.06,2.31l-0.07,0.89l3.36-1.96
			c0.01-0.01,0.03-0.02,0.04-0.02l0.14-0.08l-0.01,0C402.32,195.34,404.21,191.46,404.21,185.98z"/>
		
			<ellipse transform="matrix(0.866 -0.5 0.5 0.866 -37.5536 215.5267)" class="st34" cx="383.38" cy="177.84" rx="14.28" ry="24.73"/>
	</g>
</g>
<g>
	<path class="st11" d="M337.55,234.22l-54.92-31.71c-1.62-0.94-1.62-3.27,0-4.21l8.38-4.88c2.8-1.62,6.26-1.62,9.06,0l54.92,31.71
		c1.62,0.94,1.62,3.27,0,4.21l-8.38,4.88C343.8,235.84,340.35,235.84,337.55,234.22z"/>
	<polygon class="st1" points="310.06,201.81 301.27,196.73 303.01,195.72 311.8,200.8 	"/>
	<polygon class="st1" points="334.84,216.47 332.14,214.91 333.88,213.9 336.58,215.46 	"/>
	<polygon class="st1" points="315.15,204.83 312.45,203.27 314.2,202.26 316.9,203.82 	"/>
	<path class="st1" d="M342.08,227.9c-1.6,0-3.2-0.41-4.63-1.24l-54.92-31.71c-0.82-0.48-1.31-1.33-1.31-2.28s0.49-1.8,1.31-2.28
		l8.38-4.88c2.86-1.65,6.4-1.65,9.26,0l54.92,31.71c0.82,0.47,1.31,1.33,1.31,2.28c0,0.95-0.49,1.8-1.31,2.28l-8.38,4.88
		C345.28,227.49,343.68,227.9,342.08,227.9z M295.54,184.68c-1.53,0-3.06,0.39-4.43,1.18l-8.38,4.88c-0.7,0.4-1.12,1.13-1.12,1.93
		c0,0.81,0.42,1.53,1.12,1.93l54.92,31.71c2.73,1.58,6.13,1.58,8.86,0l8.38-4.88c0.7-0.4,1.12-1.12,1.12-1.93
		c0-0.81-0.42-1.53-1.12-1.93l-54.92-31.71C298.61,185.08,297.08,184.68,295.54,184.68z"/>
</g>
</svg>
