<svg width="94" height="546" viewBox="0 0 94 546" fill="none" xmlns="http://www.w3.org/2000/svg">
<g clip-path="url(#clip0_4_233)">
<path fill-rule="evenodd" clip-rule="evenodd" d="M16.4851 6.2326C14.3601 5.2013 14.5751 2.4784 13.8611 0L79.4761 0C79.2741 1.8887 79.1721 3.2108 77.5421 5.0994C110.64 23.8284 83.2001 53.2614 70.0831 41.9294C70.3331 64.2154 68.8961 110.02 69.9741 396.619C56.0351 400.299 43.1721 402.159 23.3721 396.819C20.9941 110.529 21.7441 58.8594 23.1161 43.0594C3.59315 51.1224 -9.43285 17.8646 16.4851 6.2326Z" fill="#282828"/>
<path fill-rule="evenodd" clip-rule="evenodd" d="M23.485 11.401C17.563 11.279 11.728 14.175 8.75099 19.507C5.10529 26.038 7.02238 34.838 14.006 38.498C19.588 41.424 27.085 39.81 30.13 33.995C32.514 29.443 31.117 23.345 26.151 20.944C22.358 19.109 17.3 20.276 15.384 24.339C13.963 27.351 14.96 31.358 18.377 32.792C19.6 33.305 20.94 33.352 22.184 32.949C23.427 32.546 24.611 31.602 25.144 30.215C25.511 29.263 25.512 28.253 25.157 27.299C24.802 26.345 23.976 25.409 22.799 25.05C22.029 24.816 21.26 24.852 20.505 25.164C19.75 25.476 18.964 26.222 18.755 27.217C18.663 27.657 18.711 28.057 18.832 28.458C18.427 27.711 18.391 26.715 18.781 25.888C19.723 23.889 22.451 23.261 24.497 24.25C27.415 25.661 28.285 29.467 26.798 32.307C24.786 36.148 19.612 37.263 15.769 35.248C10.7624 32.624 9.33838 26.103 12.032 21.277C14.801 16.318 21.037 14.052 26.586 15.527L27.567 11.974C26.226 11.618 24.851 11.429 23.485 11.401ZM19.915 27.116L21.959 28.559C21.832 28.612 21.82 28.611 21.69 28.571C21.671 28.566 21.61 28.489 21.639 28.565C21.667 28.642 21.67 28.832 21.639 28.912C21.532 29.189 21.355 29.342 21.011 29.453C20.732 29.544 20.379 29.524 20.069 29.447C20.05 29.426 20.015 29.401 19.998 29.384C19.894 29.278 19.846 29.208 19.8 29.138C19.753 29.069 19.748 29.195 19.588 28.697C19.471 28.333 19.51 27.812 19.678 27.463C19.749 27.314 19.833 27.213 19.915 27.116Z" fill="#FEC159"/>
<path fill-rule="evenodd" clip-rule="evenodd" d="M73.253 11.248C79.175 11.126 85.009 14.022 87.986 19.354C91.632 25.885 89.715 34.685 82.731 38.345C77.15 41.271 69.653 39.657 66.607 33.842C64.223 29.29 65.62 23.192 70.587 20.791C74.38 18.956 79.438 20.123 81.353 24.186C82.774 27.198 81.778 31.204 78.361 32.639C77.137 33.152 75.797 33.199 74.554 32.796C73.311 32.393 72.127 31.449 71.593 30.062C71.227 29.11 71.225 28.1 71.58 27.146C71.935 26.192 72.761 25.256 73.939 24.897C74.709 24.663 75.478 24.699 76.233 25.011C76.988 25.323 77.773 26.069 77.983 27.064C78.075 27.504 78.026 27.904 77.906 28.305C78.31 27.558 78.347 26.562 77.957 25.735C77.014 23.736 74.286 23.108 72.24 24.097C69.322 25.508 68.453 29.314 69.94 32.154C71.951 35.994 77.126 37.11 80.969 35.095C85.975 32.471 87.399 25.95 84.705 21.124C81.937 16.165 75.7 13.899 70.151 15.374L69.171 11.821C70.512 11.465 71.886 11.276 73.253 11.248ZM76.823 26.963L74.778 28.406C74.906 28.459 74.917 28.458 75.047 28.418C75.066 28.413 75.127 28.336 75.099 28.412C75.07 28.488 75.068 28.679 75.099 28.759C75.205 29.036 75.382 29.189 75.727 29.3C76.005 29.39 76.358 29.371 76.669 29.294C76.688 29.273 76.723 29.248 76.739 29.231C76.843 29.125 76.891 29.055 76.938 28.985C76.985 28.916 76.989 29.042 77.149 28.544C77.266 28.18 77.228 27.659 77.06 27.31C76.988 27.161 76.905 27.06 76.823 26.963Z" fill="#FEC159"/>
<path fill-rule="evenodd" clip-rule="evenodd" d="M26.901 11.97C43.795 15.459 57.742 13.901 71.328 11.362L70.979 15.223C48.739 21.173 41.143 20.813 24.688 14.843L26.901 11.97Z" fill="#FEC159"/>
<path fill-rule="evenodd" clip-rule="evenodd" d="M67.452 37.396C66.351 37.027 63.338 32.63 64.552 32.58C53.795 31.484 43.762 31.563 32.227 32.863C32.375 34.549 30.979 35.971 29.603 37.396C44.269 34.512 55.597 35.824 67.452 37.396Z" fill="#FEC159"/>
<path fill-rule="evenodd" clip-rule="evenodd" d="M71.8121 5.6616L22.2681 5.7648C21.0161 5.7632 19.8571 5.9749 19.2351 6.319C18.6131 6.663 18.6231 7.0863 19.2621 7.4273C19.9011 7.7682 21.0701 7.9741 22.3231 7.9663L71.8671 7.8631C73.1191 7.8647 74.2781 7.653 74.9001 7.309C75.5221 6.965 75.5121 6.5416 74.8731 6.2007C74.2341 5.8598 73.0651 5.6539 71.8121 5.6616Z" fill="#FEC159"/>
<path fill-rule="evenodd" clip-rule="evenodd" d="M27.0919 43.794C26.7019 43.8 26.3309 43.965 26.0599 44.252C25.7889 44.539 25.6409 44.925 25.6479 45.325V349.905V387.705V392.365V392.935V393.005C25.5369 394.365 28.3729 395.615 28.5849 393.005C28.5869 392.985 28.5849 392.955 28.5849 392.935V392.365V387.705V349.905V45.325C28.5919 44.922 28.4369 44.528 28.1549 44.24C27.8739 43.951 27.4899 43.792 27.0919 43.799V43.794Z" fill="#FEC159"/>
<path fill-rule="evenodd" clip-rule="evenodd" d="M33.795 42.384C32.984 42.397 32.337 43.082 32.35 43.913V350.873V388.963V393.663V394.203V394.233V394.293V394.303C32.35 396.153 35.285 396.173 35.285 394.303C35.285 394.283 35.286 394.253 35.285 394.233V393.663V388.963V350.873V43.913C35.291 43.508 35.136 43.116 34.855 42.828C34.574 42.54 34.192 42.381 33.795 42.387V42.384Z" fill="#FEC159"/>
<path fill-rule="evenodd" clip-rule="evenodd" d="M40.223 41.538C39.412 41.551 38.766 42.235 38.778 43.066V351.516V389.796V394.516V395.056V395.086V395.156V395.166C38.944 396.526 41.878 396.516 41.713 395.166C41.707 395.116 41.716 395.066 41.713 395.016V394.516V389.796V351.516V43.066C41.72 42.655 41.565 42.262 41.284 41.974C41.003 41.686 40.62 41.527 40.223 41.534V41.538Z" fill="#FEC159"/>
<path fill-rule="evenodd" clip-rule="evenodd" d="M53.013 41.569C52.204 41.582 51.558 42.264 51.568 43.094V351.344V389.594V394.314V394.854V394.884V394.954C51.568 396.884 54.499 396.404 54.499 394.954C54.499 394.904 54.502 394.854 54.499 394.814V394.314V389.594V351.344V43.094C54.505 42.692 54.35 42.301 54.07 42.014C53.79 41.727 53.409 41.568 53.013 41.573V41.569Z" fill="#FEC159"/>
<path fill-rule="evenodd" clip-rule="evenodd" d="M65.4749 43.794C64.6659 43.807 64.0199 44.489 64.0299 45.318V349.828V387.618V392.278V392.818V392.848V392.908V392.918C64.4619 394.908 67.1769 393.888 66.9669 392.918C66.9619 392.898 66.9679 392.868 66.9669 392.848V392.278V387.618V349.828V45.318C66.9719 44.909 66.8169 44.518 66.5349 44.23C66.2539 43.943 65.8709 43.785 65.4749 43.792V43.794Z" fill="#FEC159"/>
<path fill-rule="evenodd" clip-rule="evenodd" d="M59.141 42.387C58.751 42.393 58.38 42.558 58.109 42.845C57.838 43.133 57.69 43.518 57.697 43.918V350.668V388.738V393.438V393.968V394.008V394.068V394.078C57.757 394.758 59.767 396.458 60.634 394.078V393.498V393.438V388.738V350.668V43.918C60.641 43.508 60.485 43.114 60.204 42.826C59.923 42.537 59.539 42.378 59.141 42.385V42.387Z" fill="#FEC159"/>
<path fill-rule="evenodd" clip-rule="evenodd" d="M46.431 41.538C45.622 41.551 44.976 42.233 44.987 43.063V351.523V389.803V394.523V395.103V395.163V395.173C44.987 396.993 47.924 396.733 47.924 395.173C47.924 395.153 47.925 395.123 47.924 395.103V394.523V389.803V351.523V43.063C47.929 42.659 47.774 42.267 47.492 41.98C47.211 41.692 46.828 41.534 46.431 41.541V41.538Z" fill="#FEC159"/>
</g>
<g clip-path="url(#clip1_4_233)">
<path fill-rule="evenodd" clip-rule="evenodd" d="M76.5553 668.969C78.6744 670.629 78.46 675.011 79.172 679L13.7403 679C13.9417 675.96 14.0435 673.833 15.6689 670.793C-17.3366 640.651 10.0267 593.281 23.1071 611.519C22.8578 575.652 24.2908 501.934 23.2158 40.6821C37.1159 34.7595 49.9429 31.766 69.6876 40.3602C72.0589 501.114 71.311 584.272 69.9429 609.7C89.4113 596.724 102.401 650.249 76.5553 668.969Z" fill="#282828"/>
<path fill-rule="evenodd" clip-rule="evenodd" d="M65.978 608.518C66.3669 608.508 66.7369 608.243 67.0071 607.781C67.2774 607.319 67.425 606.698 67.418 606.054L67.418 115.864L67.418 55.0289L67.418 47.5292L67.418 46.6118L67.418 46.4991C67.5287 44.3104 64.7006 42.2986 64.4892 46.4991C64.4872 46.5313 64.4892 46.5796 64.4892 46.6118L64.4892 47.5292L64.4892 55.0289L64.4892 115.864L64.4892 606.054C64.4822 606.703 64.6368 607.337 64.918 607.8C65.1982 608.265 65.5811 608.521 65.978 608.51L65.978 608.518Z" fill="#FEC159"/>
<path fill-rule="evenodd" clip-rule="evenodd" d="M59.294 610.787C60.1027 610.766 60.7479 609.664 60.7349 608.327L60.735 114.306L60.735 53.0043L60.735 45.4401L60.735 44.571L60.735 44.5228L60.735 44.4262L60.735 44.4101C60.735 41.4327 57.8082 41.4005 57.8082 44.4101C57.8082 44.4423 57.8072 44.4906 57.8082 44.5228L57.8082 45.4401L57.8082 53.0043L57.8082 114.306L57.8081 608.327C57.8021 608.978 57.9567 609.609 58.2369 610.073C58.5171 610.536 58.8981 610.792 59.294 610.783L59.294 610.787Z" fill="#FEC159"/>
<path fill-rule="evenodd" clip-rule="evenodd" d="M52.8838 612.149C53.6926 612.128 54.3368 611.027 54.3248 609.69L54.3248 113.271L54.3248 51.6637L54.3248 44.0673L54.3248 43.1982L54.3248 43.15L54.3248 43.0373L54.3248 43.0212C54.1593 40.8325 51.2335 40.8486 51.398 43.0212C51.404 43.1017 51.395 43.1822 51.398 43.2626L51.398 44.0673L51.398 51.6637L51.398 113.271L51.398 609.69C51.391 610.351 51.5456 610.984 51.8258 611.447C52.106 611.911 52.4879 612.167 52.8838 612.155L52.8838 612.149Z" fill="#FEC159"/>
<path fill-rule="evenodd" clip-rule="evenodd" d="M40.1295 612.099C40.9362 612.078 41.5804 610.98 41.5704 609.645L41.5705 113.548L41.5705 51.9888L41.5705 44.3925L41.5705 43.5234L41.5705 43.4751L41.5705 43.3624C41.5705 40.2563 38.6477 41.0288 38.6477 43.3624C38.6477 43.4429 38.6447 43.5234 38.6477 43.5878L38.6477 44.3925L38.6477 51.9888L38.6477 113.548L38.6476 609.645C38.6416 610.292 38.7962 610.921 39.0754 611.383C39.3547 611.845 39.7346 612.101 40.1295 612.093L40.1295 612.099Z" fill="#FEC159"/>
<path fill-rule="evenodd" clip-rule="evenodd" d="M27.7022 608.518C28.509 608.497 29.1532 607.4 29.1432 606.065L29.1432 115.988L29.1432 55.1689L29.1432 47.6691L29.1432 46.8L29.1432 46.7518L29.1432 46.6552L29.1432 46.6391C28.7125 43.4364 26.005 45.078 26.2144 46.6391C26.2194 46.6713 26.2134 46.7196 26.2144 46.7518L26.2144 47.6691L26.2144 55.1689L26.2144 115.988L26.2144 606.065C26.2094 606.724 26.364 607.353 26.6452 607.816C26.9254 608.278 27.3073 608.533 27.7022 608.521L27.7022 608.518Z" fill="#FEC159"/>
<path fill-rule="evenodd" clip-rule="evenodd" d="M34.0188 610.782C34.4077 610.773 34.7776 610.507 35.0479 610.045C35.3181 609.582 35.4657 608.962 35.4587 608.319L35.4588 114.636L35.4588 53.3664L35.4588 45.8022L35.4588 44.9493L35.4588 44.8849L35.4588 44.7883L35.4588 44.7722C35.3989 43.6779 33.3946 40.9418 32.53 44.7722L32.53 45.7057L32.53 45.8022L32.53 53.3664L32.53 114.636L32.5299 608.319C32.5229 608.978 32.6785 609.612 32.9587 610.076C33.2389 610.541 33.6219 610.797 34.0188 610.786L34.0188 610.782Z" fill="#FEC159"/>
<path fill-rule="evenodd" clip-rule="evenodd" d="M46.6932 612.149C47.4999 612.128 48.1441 611.03 48.1332 609.695L48.1332 113.26L48.1332 51.6524L48.1332 44.056L48.1332 43.1226L48.1332 43.0261L48.1332 43.0099C48.1332 40.0808 45.2044 40.4993 45.2044 43.0099C45.2044 43.0421 45.2034 43.0904 45.2044 43.1226L45.2044 44.056L45.2044 51.6524L45.2044 113.26L45.2044 609.695C45.1994 610.345 45.3539 610.976 45.6352 611.438C45.9154 611.901 46.2973 612.155 46.6932 612.144L46.6932 612.149Z" fill="#FEC159"/>
</g>
<defs>
<clipPath id="clip0_4_233">
<rect width="91.255" height="400.15" fill="white" transform="translate(2)"/>
</clipPath>
<clipPath id="clip1_4_233">
<rect width="91.0001" height="644" fill="white" transform="translate(91 679) rotate(-180)"/>
</clipPath>
</defs>
</svg>
